# xmcd
#
# Track frame offsets:
#	150
#	45270
#	74552
#	92206
#	115687
#	137368
#	167821
#	173610
#	184718
#	201955
#	218974
#	232829
#
# Disc length: 3642 seconds
#
# Revision: 0
# Processed by: cddbd v1.5PL3 Copyright (c) Steve Scherf et al.
# Submitted via: dBpowerAMP V4.0
#
DISCID=9e0e380c
DTITLE=Eric Clapton - Versiones originales CD1
DYEAR=2001
DGENRE=Blues
TTITLE0=Mainline florida
TTITLE1=Sunshine of you love
TTITLE2=Smile
TTITLE3=Hours too long
TTITLE4=I'm a man
TTITLE5=I shot the sherif
TTITLE6=Choker
TTITLE7=Snke drive
TTITLE8=Little red rooster
TTITLE9=Big boss man
TTITLE10=Draffin'my tail
TTITLE11=Steady Rollin' man
EXTD=Eric Clapton Versiones originales CD1
EXTT0=
EXTT1=
EXTT2=
EXTT3=
EXTT4=
EXTT5=
EXTT6=
EXTT7=
EXTT8=
EXTT9=
EXTT10=
EXTT11=
PLAYORDER=
